<?xml version="1.0" encoding="utf-8"?>
<!-- Generator: Adobe Illustrator 24.0.0, SVG Export Plug-In . SVG Version: 6.00 Build 0)  -->
<svg version="1.1" xmlns="http://www.w3.org/2000/svg" xmlns:xlink="http://www.w3.org/1999/xlink" x="0px" y="0px"
	 viewBox="0 0 16 16" style="enable-background:new 0 0 16 16;" xml:space="preserve">
<style type="text/css">
	.st0{fill:#FF0606;fill-opacity:0.75;}
	.st1{display:none;}
	.st2{display:inline;}
	.st3{fill:#FF0606;}
</style>
<g id="Layer_1_copy_14">
	<g>
		<path class="st0" d="M7.9,9.8c-0.1,0-0.1,0-0.1-0.1C7.6,9.6,7.4,9.5,7.3,9.4l0,0C6.9,9,6.6,8.8,6.4,8.5C6.1,8.2,6,7.9,6,7.6
			C6,7.3,6.1,7,6.3,6.8C6.5,6.6,6.8,6.5,7,6.5c0.2,0,0.4,0.1,0.6,0.2c0.1,0.1,0.2,0.2,0.2,0.2C7.9,6.8,8,6.7,8.1,6.7
			c0.2-0.1,0.4-0.2,0.6-0.2c0.3,0,0.6,0.1,0.7,0.3C9.6,7,9.7,7.3,9.7,7.6c0,0.3-0.1,0.6-0.4,0.9C9.1,8.8,8.8,9,8.4,9.4
			C8.3,9.5,8.2,9.6,8,9.7C8,9.8,7.9,9.8,7.9,9.8z M7,6.7c-0.2,0-0.4,0.1-0.6,0.3C6.3,7.1,6.2,7.3,6.2,7.6c0,0.3,0.1,0.5,0.3,0.8
			c0.2,0.3,0.5,0.5,0.9,0.8l0,0c0.1,0.1,0.3,0.2,0.4,0.4C8,9.4,8.2,9.3,8.3,9.2C8.7,8.9,9,8.6,9.2,8.3c0.2-0.3,0.3-0.5,0.3-0.8
			c0-0.3-0.1-0.5-0.2-0.6C9.1,6.8,8.9,6.7,8.7,6.7c-0.2,0-0.3,0.1-0.5,0.2C8.1,6.9,8,7,8,7.1c0,0-0.1,0.1-0.1,0.1c0,0-0.1,0-0.1-0.1
			c0-0.1-0.1-0.2-0.3-0.3C7.4,6.7,7.2,6.7,7,6.7z"/>
	</g>
</g>
<g id="Layer_1_copy_13">
	<g>
		<path class="st0" d="M7.9,10c-0.1,0-0.1,0-0.2-0.1C7.5,9.8,7.4,9.7,7.2,9.5l0,0c-0.4-0.4-0.8-0.7-1.1-1c-0.3-0.3-0.4-0.7-0.4-1
			c0-0.4,0.1-0.7,0.3-0.9c0.2-0.2,0.5-0.4,0.9-0.4c0.2,0,0.5,0.1,0.7,0.2c0.1,0.1,0.2,0.2,0.3,0.3C7.9,6.6,8,6.5,8.1,6.4
			c0.2-0.2,0.4-0.2,0.7-0.2c0.3,0,0.6,0.1,0.9,0.4C9.9,6.8,10,7.1,10,7.5c0,0.4-0.1,0.7-0.4,1C9.3,8.9,9,9.2,8.5,9.5
			C8.4,9.7,8.2,9.8,8,10C8,10,7.9,10,7.9,10z"/>
	</g>
</g>
<g id="Layer_1_copy_12">
	<g>
		<path class="st0" d="M7.9,10.2c-0.1,0-0.1,0-0.2-0.1C7.5,10,7.3,9.8,7.1,9.7l0,0C6.7,9.3,6.3,8.9,6,8.6C5.7,8.2,5.5,7.8,5.5,7.4
			c0-0.4,0.1-0.7,0.4-1C6.1,6.2,6.5,6,6.8,6c0.3,0,0.5,0.1,0.7,0.3c0.1,0.1,0.2,0.2,0.3,0.3C8,6.5,8.1,6.4,8.2,6.3
			C8.4,6.1,8.6,6,8.9,6c0.4,0,0.7,0.1,0.9,0.4c0.2,0.3,0.4,0.6,0.4,1c0,0.4-0.1,0.8-0.5,1.2C9.5,8.9,9.1,9.3,8.6,9.7
			C8.4,9.8,8.2,10,8.1,10.2C8,10.2,7.9,10.2,7.9,10.2z M6.8,6.3c-0.3,0-0.6,0.1-0.7,0.3C5.9,6.8,5.8,7.1,5.8,7.4
			c0,0.3,0.1,0.6,0.4,1c0.3,0.3,0.7,0.7,1.1,1.1l0,0c0.2,0.1,0.3,0.3,0.5,0.5c0.2-0.2,0.4-0.3,0.5-0.5c0.5-0.4,0.9-0.7,1.1-1.1
			c0.3-0.3,0.4-0.6,0.4-1c0-0.3-0.1-0.6-0.3-0.8C9.5,6.4,9.2,6.3,8.9,6.3c-0.2,0-0.4,0.1-0.6,0.2C8.2,6.6,8.1,6.8,8,6.9
			c0,0.1-0.1,0.1-0.2,0.1c-0.1,0-0.1,0-0.2-0.1C7.7,6.8,7.6,6.6,7.4,6.5C7.2,6.4,7,6.3,6.8,6.3z"/>
	</g>
</g>
<g id="Layer_1_copy_11">
	<g>
		<path class="st0" d="M8,10.2c-0.1,0-0.1,0-0.2-0.1C7.6,10,7.4,9.8,7.2,9.7l0,0C6.7,9.2,6.3,8.9,6,8.5C5.7,8.1,5.5,7.7,5.5,7.3
			c0-0.4,0.1-0.8,0.4-1.1c0.3-0.3,0.6-0.4,1-0.4c0.3,0,0.6,0.1,0.8,0.3C7.8,6.1,7.9,6.3,8,6.4c0.1-0.1,0.2-0.2,0.3-0.3
			c0.2-0.2,0.5-0.3,0.8-0.3c0.4,0,0.7,0.2,1,0.4c0.3,0.3,0.4,0.7,0.4,1.1c0,0.4-0.2,0.8-0.5,1.2C9.7,8.9,9.3,9.2,8.8,9.7
			C8.6,9.8,8.4,10,8.2,10.1C8.1,10.2,8.1,10.2,8,10.2z M6.9,6.1c-0.3,0-0.6,0.1-0.8,0.3C5.9,6.6,5.8,6.9,5.8,7.3
			c0,0.4,0.1,0.7,0.4,1C6.5,8.7,6.9,9,7.4,9.4l0,0C7.6,9.6,7.8,9.8,8,9.9c0.2-0.2,0.4-0.3,0.6-0.5C9.1,9,9.5,8.7,9.8,8.3
			c0.3-0.4,0.4-0.7,0.4-1c0-0.3-0.1-0.6-0.3-0.9C9.7,6.2,9.4,6.1,9.1,6.1c-0.2,0-0.4,0.1-0.6,0.2C8.3,6.4,8.2,6.6,8.2,6.7
			c0,0.1-0.1,0.1-0.2,0.1c-0.1,0-0.1,0-0.2-0.1C7.8,6.6,7.7,6.4,7.5,6.3C7.3,6.1,7.1,6.1,6.9,6.1z"/>
	</g>
</g>
<g id="Layer_1_copy_10">
	<g>
		<path class="st0" d="M8,10.5c-0.1,0-0.2,0-0.2-0.1C7.6,10.2,7.3,10,7.2,9.8l0,0C6.6,9.4,6.1,9,5.8,8.6C5.4,8.1,5.2,7.7,5.2,7.2
			c0-0.5,0.2-0.9,0.4-1.2C6,5.7,6.3,5.5,6.8,5.5c0.3,0,0.6,0.1,0.9,0.3C7.8,5.9,7.9,6.1,8,6.2c0.1-0.1,0.2-0.3,0.4-0.4
			c0.3-0.2,0.6-0.3,0.9-0.3c0.4,0,0.8,0.2,1.1,0.5c0.3,0.3,0.4,0.7,0.4,1.2c0,0.5-0.2,0.9-0.6,1.4C9.9,9,9.4,9.4,8.8,9.8
			c-0.2,0.2-0.4,0.3-0.6,0.5C8.2,10.4,8.1,10.5,8,10.5z M6.8,5.9C6.4,5.9,6.1,6,5.9,6.2c-0.2,0.2-0.4,0.6-0.4,1
			c0,0.4,0.1,0.7,0.5,1.1c0.3,0.4,0.8,0.8,1.3,1.3l0,0C7.6,9.8,7.8,9.9,8,10.1c0.2-0.2,0.4-0.4,0.6-0.5c0.5-0.5,1-0.9,1.3-1.3
			c0.3-0.4,0.5-0.8,0.5-1.1c0-0.4-0.1-0.7-0.4-1C9.9,6,9.6,5.9,9.2,5.9C9,5.9,8.8,5.9,8.6,6.1C8.4,6.2,8.2,6.4,8.2,6.5
			c0,0.1-0.1,0.1-0.2,0.1c-0.1,0-0.1,0-0.2-0.1C7.8,6.4,7.6,6.2,7.4,6.1C7.2,5.9,7,5.9,6.8,5.9z"/>
	</g>
</g>
<g id="Layer_1_copy_9">
	<g>
		<path class="st0" d="M8,10.8c-0.1,0-0.2,0-0.2-0.1c-0.3-0.2-0.5-0.4-0.7-0.6l0,0c-0.6-0.5-1.2-1-1.5-1.4c-0.4-0.5-0.6-1-0.6-1.5
			c0-0.5,0.2-1,0.5-1.3c0.3-0.3,0.8-0.5,1.2-0.5c0.4,0,0.7,0.1,1,0.3C7.8,5.7,7.9,5.8,8,6c0.1-0.2,0.2-0.3,0.4-0.4
			c0.3-0.2,0.6-0.3,1-0.3c0.5,0,0.9,0.2,1.2,0.5c0.3,0.3,0.5,0.8,0.5,1.3c0,0.5-0.2,1-0.6,1.5c-0.4,0.5-0.9,0.9-1.5,1.4
			c-0.2,0.2-0.5,0.4-0.7,0.6C8.2,10.7,8.1,10.8,8,10.8z M6.6,5.6c-0.4,0-0.7,0.2-1,0.4C5.4,6.3,5.3,6.7,5.3,7.1
			c0,0.4,0.2,0.8,0.5,1.3c0.4,0.4,0.9,0.9,1.5,1.4l0,0C7.5,10,7.7,10.2,8,10.4c0.3-0.2,0.5-0.4,0.7-0.6c0.6-0.5,1.1-1,1.5-1.4
			c0.4-0.4,0.5-0.8,0.5-1.3c0-0.4-0.1-0.8-0.4-1.1c-0.3-0.3-0.6-0.4-1-0.4c-0.3,0-0.5,0.1-0.8,0.3C8.4,6,8.3,6.2,8.2,6.3
			c0,0.1-0.1,0.1-0.2,0.1c-0.1,0-0.2,0-0.2-0.1C7.7,6.2,7.6,6,7.4,5.9C7.2,5.7,6.9,5.6,6.6,5.6z"/>
	</g>
</g>
<g id="Layer_1_copy_8">
	<g>
		<path class="st0" d="M8,11.1c-0.1,0-0.2,0-0.3-0.1c-0.3-0.2-0.5-0.5-0.8-0.7l0,0C6.3,9.7,5.7,9.2,5.2,8.7C4.8,8.1,4.5,7.6,4.5,7
			c0-0.6,0.2-1.1,0.5-1.5c0.4-0.4,0.8-0.6,1.4-0.6c0.4,0,0.8,0.1,1.1,0.4C7.7,5.4,7.9,5.6,8,5.8c0.1-0.2,0.3-0.3,0.4-0.5
			c0.3-0.2,0.7-0.4,1.1-0.4c0.5,0,1,0.2,1.4,0.6c0.4,0.4,0.5,0.9,0.5,1.5c0,0.6-0.2,1.1-0.7,1.7c-0.4,0.5-1,1-1.7,1.6
			c-0.2,0.2-0.5,0.4-0.8,0.7C8.2,11,8.1,11.1,8,11.1z M6.5,5.3c-0.4,0-0.8,0.2-1.1,0.5C5.1,6.1,5,6.5,5,7c0,0.5,0.2,0.9,0.6,1.4
			c0.4,0.5,1,1,1.7,1.6l0,0c0.2,0.2,0.5,0.4,0.8,0.7c0.3-0.2,0.6-0.5,0.8-0.7c0.7-0.6,1.3-1.1,1.7-1.6C10.9,7.9,11,7.5,11,7
			c0-0.5-0.2-0.9-0.4-1.2c-0.3-0.3-0.7-0.5-1.1-0.5c-0.3,0-0.6,0.1-0.8,0.3C8.5,5.8,8.3,6,8.2,6.2c0,0.1-0.1,0.1-0.2,0.1
			c-0.1,0-0.2,0-0.2-0.1C7.7,6,7.5,5.8,7.3,5.6C7.1,5.4,6.8,5.3,6.5,5.3z"/>
	</g>
</g>
<g id="Layer_1_copy_7">
	<g>
		<path class="st0" d="M8,11.4c-0.1,0-0.2,0-0.3-0.1c-0.3-0.3-0.6-0.5-0.9-0.8l0,0C6,9.9,5.4,9.3,4.9,8.8C4.4,8.1,4.1,7.5,4.1,6.9
			c0-0.6,0.2-1.2,0.6-1.6c0.4-0.4,0.9-0.7,1.5-0.7c0.4,0,0.9,0.1,1.2,0.4C7.7,5.1,7.9,5.3,8,5.5C8.1,5.3,8.3,5.1,8.5,5
			c0.4-0.3,0.8-0.4,1.2-0.4c0.6,0,1.1,0.2,1.5,0.7c0.4,0.4,0.6,1,0.6,1.6c0,0.7-0.2,1.2-0.8,1.9c-0.5,0.6-1.1,1.1-1.9,1.8
			c-0.3,0.2-0.6,0.5-0.9,0.8C8.2,11.4,8.1,11.4,8,11.4z M6.3,5C5.8,5,5.4,5.2,5.1,5.5C4.8,5.9,4.6,6.4,4.6,6.9c0,0.5,0.2,1,0.7,1.6
			C5.7,9,6.4,9.6,7.1,10.2l0,0C7.4,10.4,7.7,10.7,8,11c0.3-0.3,0.6-0.5,0.9-0.8c0.8-0.6,1.4-1.2,1.9-1.7c0.5-0.6,0.7-1,0.7-1.6
			c0-0.5-0.2-1-0.5-1.3C10.6,5.2,10.2,5,9.7,5C9.4,5,9,5.1,8.8,5.3C8.5,5.5,8.3,5.8,8.2,5.9C8.2,6,8.1,6.1,8,6.1
			C7.9,6.1,7.8,6,7.8,5.9C7.7,5.8,7.5,5.5,7.2,5.3C7,5.1,6.6,5,6.3,5z"/>
	</g>
</g>
<g id="Layer_1_copy_6">
	<g>
		<path class="st0" d="M8,11.8c-0.1,0-0.2,0-0.3-0.1c-0.3-0.3-0.7-0.6-1-0.8l0,0c-0.9-0.7-1.6-1.4-2.1-2C4,8.2,3.7,7.5,3.7,6.8
			c0-0.7,0.2-1.4,0.7-1.8c0.4-0.5,1.1-0.7,1.7-0.7c0.5,0,0.9,0.2,1.3,0.5C7.7,4.8,7.8,5,8,5.2C8.2,5,8.3,4.8,8.5,4.6
			c0.4-0.3,0.9-0.5,1.3-0.5c0.7,0,1.3,0.3,1.7,0.7c0.4,0.5,0.7,1.1,0.7,1.8c0,0.7-0.3,1.4-0.9,2.1c-0.5,0.6-1.3,1.3-2.1,2
			c-0.3,0.3-0.6,0.5-1,0.8C8.2,11.8,8.1,11.8,8,11.8z M6.1,4.7c-0.5,0-1,0.2-1.3,0.6C4.4,5.7,4.2,6.2,4.2,6.8c0,0.6,0.2,1.2,0.7,1.8
			C5.4,9.1,6.2,9.7,7,10.5l0,0c0.3,0.3,0.6,0.5,1,0.8c0.4-0.3,0.7-0.6,1-0.8c0.8-0.7,1.6-1.3,2.1-1.9c0.5-0.6,0.7-1.2,0.7-1.8
			c0-0.6-0.2-1.1-0.5-1.5c-0.3-0.4-0.8-0.6-1.3-0.6c-0.4,0-0.7,0.1-1,0.4C8.6,5.3,8.4,5.5,8.3,5.7C8.2,5.8,8.1,5.9,8,5.9
			c-0.1,0-0.2-0.1-0.3-0.2C7.6,5.5,7.4,5.3,7.1,5C6.8,4.8,6.5,4.7,6.1,4.7z"/>
	</g>
</g>
<g id="Layer_1_copy_5" class="st1">
	<g class="st2">
		<path class="st0" d="M8,12.3c-0.1,0-0.3,0-0.4-0.1c-0.4-0.3-0.8-0.7-1.1-0.9l0,0c-1-0.8-1.8-1.5-2.4-2.2c-0.6-0.8-1-1.5-1-2.3
			c0-0.8,0.3-1.5,0.8-2C4.5,4,5.1,3.7,5.9,3.7c0.6,0,1.1,0.2,1.5,0.5C7.6,4.4,7.8,4.6,8,4.9c0.2-0.2,0.4-0.5,0.6-0.6
			c0.4-0.3,1-0.5,1.5-0.5c0.7,0,1.4,0.3,1.9,0.8c0.5,0.5,0.8,1.3,0.8,2c0,0.8-0.3,1.6-1,2.3c-0.6,0.7-1.4,1.4-2.4,2.2
			c-0.3,0.3-0.7,0.6-1.1,0.9C8.3,12.2,8.1,12.3,8,12.3z M5.9,4.3c-0.6,0-1.1,0.2-1.5,0.7C4,5.4,3.8,6,3.8,6.6c0,0.7,0.3,1.3,0.8,2
			C5.1,9.3,6,10,6.9,10.8l0,0C7.2,11,7.6,11.4,8,11.7c0.4-0.3,0.8-0.7,1.1-0.9c0.9-0.8,1.8-1.5,2.3-2.2c0.6-0.7,0.8-1.3,0.8-2
			c0-0.6-0.2-1.2-0.6-1.7c-0.4-0.4-0.9-0.7-1.5-0.7C9.7,4.3,9.3,4.4,9,4.7C8.6,4.9,8.4,5.2,8.3,5.4C8.2,5.6,8.1,5.6,8,5.6
			c-0.1,0-0.2-0.1-0.3-0.2C7.6,5.2,7.4,4.9,7,4.7C6.7,4.4,6.3,4.3,5.9,4.3z"/>
	</g>
</g>
<g id="Layer_1_copy_4" class="st1">
	<g class="st2">
		<path class="st0" d="M8,12.7c-0.2,0-0.3-0.1-0.4-0.2c-0.4-0.4-0.8-0.7-1.2-1l0,0c-1.1-0.9-2-1.7-2.6-2.5C3,8.2,2.7,7.4,2.7,6.5
			c0-0.9,0.3-1.7,0.8-2.3c0.6-0.6,1.3-0.9,2.1-0.9c0.6,0,1.2,0.2,1.7,0.6C7.6,4,7.8,4.3,8,4.5C8.2,4.3,8.4,4,8.7,3.8
			c0.5-0.4,1.1-0.6,1.7-0.6c0.8,0,1.6,0.3,2.1,0.9c0.5,0.6,0.8,1.4,0.8,2.3c0,0.9-0.3,1.7-1.1,2.6c-0.6,0.8-1.6,1.6-2.6,2.5
			c-0.4,0.3-0.8,0.7-1.2,1C8.3,12.7,8.2,12.7,8,12.7z M5.6,3.9C5,3.9,4.4,4.1,4,4.6C3.5,5.1,3.3,5.7,3.3,6.5c0,0.8,0.3,1.4,0.9,2.2
			c0.6,0.7,1.5,1.5,2.6,2.4l0,0c0.4,0.3,0.8,0.7,1.2,1c0.4-0.4,0.9-0.7,1.2-1.1c1.1-0.9,2-1.7,2.6-2.4c0.6-0.8,0.9-1.4,0.9-2.2
			c0-0.7-0.2-1.4-0.7-1.9c-0.4-0.5-1-0.7-1.7-0.7C9.9,3.9,9.4,4,9.1,4.3C8.7,4.6,8.5,4.9,8.3,5.2C8.3,5.3,8.1,5.4,8,5.4
			c-0.1,0-0.3-0.1-0.3-0.2C7.5,4.9,7.3,4.6,6.9,4.3C6.6,4,6.1,3.9,5.6,3.9z"/>
	</g>
</g>
<g id="Layer_1_copy_3" class="st1">
	<g class="st2">
		<path class="st0" d="M8,13.3c-0.2,0-0.3-0.1-0.5-0.2c-0.5-0.4-0.9-0.8-1.4-1.2l0,0c-1.2-1-2.2-1.9-3-2.8C2.4,8.2,2,7.3,2,6.3
			c0-1,0.3-1.9,0.9-2.5c0.6-0.7,1.5-1,2.4-1c0.7,0,1.3,0.2,1.9,0.6C7.5,3.6,7.8,3.8,8,4.1c0.2-0.3,0.5-0.6,0.8-0.8
			c0.6-0.4,1.2-0.6,1.9-0.6c0.9,0,1.8,0.4,2.4,1C13.6,4.4,14,5.3,14,6.3c0,1-0.4,1.9-1.2,2.9c-0.7,0.9-1.8,1.8-3,2.8
			c-0.4,0.3-0.9,0.7-1.4,1.2C8.3,13.2,8.2,13.3,8,13.3z M5.4,3.4C4.6,3.4,4,3.7,3.5,4.2C3,4.7,2.7,5.5,2.7,6.3c0,0.8,0.3,1.6,1,2.5
			c0.7,0.8,1.7,1.7,2.9,2.7l0,0C7,11.8,7.5,12.2,8,12.6c0.5-0.4,1-0.8,1.4-1.2c1.2-1,2.2-1.9,2.9-2.7c0.7-0.9,1-1.6,1-2.5
			c0-0.8-0.3-1.5-0.8-2.1c-0.5-0.5-1.1-0.8-1.9-0.8c-0.5,0-1,0.2-1.4,0.5C8.8,4.2,8.5,4.6,8.4,4.8C8.3,5,8.2,5,8,5
			C7.8,5,7.7,5,7.6,4.8C7.5,4.6,7.2,4.2,6.8,3.9C6.4,3.6,5.9,3.4,5.4,3.4z"/>
	</g>
</g>
<g id="Layer_1_copy_2" class="st1">
	<g class="st2">
		<path class="st0" d="M8,13.9c-0.2,0-0.4-0.1-0.5-0.2C7,13.2,6.4,12.8,6,12.4l0,0c-1.3-1.1-2.5-2.1-3.3-3.1
			C1.8,8.2,1.4,7.2,1.4,6.1C1.4,5,1.7,4,2.4,3.3C3.1,2.5,4,2.1,5.1,2.1c0.8,0,1.5,0.2,2.1,0.7C7.5,3.1,7.8,3.4,8,3.7
			c0.2-0.3,0.5-0.6,0.8-0.9c0.6-0.5,1.3-0.7,2.1-0.7c1,0,2,0.4,2.7,1.2C14.3,4,14.6,5,14.6,6.1c0,1.1-0.4,2.1-1.3,3.2
			c-0.8,1-2,2-3.3,3.1c-0.5,0.4-1,0.8-1.5,1.3C8.4,13.8,8.2,13.9,8,13.9z M5.1,2.9C4.3,2.9,3.5,3.2,3,3.8C2.4,4.4,2.1,5.2,2.1,6.1
			c0,0.9,0.4,1.8,1.1,2.7c0.8,0.9,1.9,1.9,3.2,3l0,0c0.5,0.4,1,0.8,1.5,1.3c0.5-0.5,1.1-0.9,1.5-1.3c1.3-1.1,2.4-2.1,3.2-3
			c0.8-0.9,1.1-1.8,1.1-2.7c0-0.9-0.3-1.7-0.8-2.3c-0.5-0.6-1.3-0.9-2.1-0.9c-0.6,0-1.1,0.2-1.6,0.6c-0.4,0.3-0.7,0.7-0.9,1
			C8.3,4.6,8.2,4.7,8,4.7c-0.2,0-0.3-0.1-0.4-0.2c-0.2-0.3-0.5-0.7-0.9-1C6.2,3.1,5.7,2.9,5.1,2.9z"/>
	</g>
</g>
<g id="Layer_1_copy" class="st1">
	<g class="st2">
		<path class="st0" d="M8,14.4c-0.2,0-0.4-0.1-0.6-0.2c-0.6-0.5-1.1-1-1.6-1.4l0,0c-1.5-1.2-2.7-2.3-3.6-3.4c-1-1.2-1.4-2.3-1.4-3.5
			c0-1.2,0.4-2.3,1.1-3.1C2.7,2,3.7,1.6,4.8,1.6c0.8,0,1.6,0.3,2.3,0.8C7.4,2.6,7.7,3,8,3.3c0.3-0.4,0.6-0.7,0.9-1
			c0.7-0.5,1.4-0.8,2.3-0.8c1.1,0,2.1,0.4,2.9,1.3c0.7,0.8,1.1,1.9,1.1,3.1c0,1.2-0.5,2.3-1.4,3.5c-0.9,1.1-2.1,2.1-3.6,3.4
			c-0.5,0.4-1.1,0.9-1.6,1.4C8.4,14.3,8.2,14.4,8,14.4z M4.8,2.4c-0.9,0-1.7,0.3-2.3,1C2,4.1,1.6,5,1.6,5.9c0,1,0.4,1.9,1.2,3
			c0.8,1,2.1,2,3.5,3.3l0,0C6.9,12.6,7.4,13,8,13.6c0.6-0.5,1.2-1,1.7-1.4c1.4-1.2,2.6-2.3,3.5-3.3c0.9-1,1.2-1.9,1.2-3
			c0-1-0.3-1.9-0.9-2.5c-0.6-0.6-1.4-1-2.3-1c-0.6,0-1.2,0.2-1.7,0.6C9,3.4,8.6,3.9,8.5,4.2C8.4,4.3,8.2,4.4,8,4.4
			c-0.2,0-0.4-0.1-0.5-0.3C7.4,3.9,7,3.4,6.6,3C6.1,2.6,5.5,2.4,4.8,2.4z"/>
	</g>
</g>
<g id="Layer_1">
	<g>
		<g id="XMLID_1_">
			<g>
				<path class="st3" d="M11.4,12.2c3.3-2.5,2.3-9.1-2.9-9.1c-0.1,0-0.3,0-0.4,0l0-0.3c0.3-0.4,0.6-0.8,1-1c0.7-0.6,1.6-0.9,2.5-0.9
					c1.2,0,2.4,0.5,3.2,1.4c0.8,0.9,1.3,2.1,1.3,3.4c0,1.3-0.5,2.6-1.6,3.9c-0.7,0.9-1.7,1.8-2.9,2.8L11.4,12.2z"/>
				<path class="st3" d="M8.4,13.1c1.2,0,2.2-0.3,2.9-0.9l0.1,0.1c-0.3,0.3-0.7,0.6-1.1,0.9c-0.6,0.5-1.2,1-1.8,1.5
					C8.4,15,8.2,15.1,8,15.1c-0.2,0-0.4-0.1-0.6-0.2c-0.6-0.6-1.3-1.1-1.8-1.5c-1.6-1.4-3-2.5-3.9-3.7C0.6,8.3,0.1,7.1,0.1,5.7
					c0-1.3,0.4-2.5,1.3-3.4c0.8-0.9,1.9-1.4,3.2-1.4c0.9,0,1.8,0.3,2.5,0.9c0.4,0.3,0.7,0.6,1,1l0,0.3C2,3.6,2.1,13.1,8.4,13.1z"/>
				<path class="st3" d="M8.4,3.2c5.2,0,6.2,6.6,2.9,9.1c-0.8,0.6-1.7,0.9-2.9,0.9C2.1,13.1,2,3.6,8,3.2C8.1,3.2,8.3,3.2,8.4,3.2z"
					/>
			</g>
			<g>
			</g>
		</g>
	</g>
</g>
</svg>
