<?xml version="1.0" encoding="utf-8"?>
<!-- Generator: Adobe Illustrator 24.0.0, SVG Export Plug-In . SVG Version: 6.00 Build 0)  -->
<svg version="1.1" id="Layer_1" xmlns="http://www.w3.org/2000/svg" xmlns:xlink="http://www.w3.org/1999/xlink" x="0px" y="0px"
	 viewBox="0 0 16 16" style="enable-background:new 0 0 16 16;" xml:space="preserve">
<style type="text/css">
	.st0{fill-opacity:0.75;}
</style>
<path class="st0" d="M8,15.1c-0.2,0-0.4-0.1-0.6-0.2c-0.6-0.6-1.3-1.1-1.8-1.6l0,0c-1.6-1.4-3-2.6-4-3.7C0.5,8.3,0,7,0,5.7
	c0-1.3,0.5-2.5,1.3-3.4c0.8-0.9,2-1.4,3.2-1.4c0.9,0,1.8,0.3,2.5,0.9C7.4,2,7.7,2.4,8,2.8C8.3,2.4,8.6,2,9,1.7
	c0.7-0.6,1.6-0.9,2.5-0.9c1.2,0,2.4,0.5,3.2,1.4C15.5,3.2,16,4.4,16,5.7c0,1.4-0.5,2.6-1.6,3.9c-1,1.2-2.4,2.4-4,3.7
	c-0.6,0.5-1.2,1-1.8,1.6C8.4,15,8.2,15.1,8,15.1z M4.5,1.8c-1,0-1.9,0.4-2.5,1.1c-0.7,0.7-1,1.7-1,2.8c0,1.1,0.4,2.2,1.4,3.3
	c0.9,1.1,2.3,2.3,3.9,3.6l0,0c0.6,0.5,1.2,1,1.8,1.6c0.7-0.6,1.3-1.1,1.8-1.6c1.6-1.3,2.9-2.5,3.9-3.6c0.9-1.1,1.4-2.2,1.4-3.3
	c0-1.1-0.4-2.1-1-2.8c-0.6-0.7-1.5-1.1-2.5-1.1c-0.7,0-1.4,0.2-1.9,0.7C9.1,2.9,8.7,3.4,8.5,3.7C8.4,3.9,8.2,4,8,4
	C7.8,4,7.6,3.9,7.5,3.7C7.3,3.4,6.9,2.9,6.4,2.5C5.8,2,5.2,1.8,4.5,1.8z"/>
</svg>
